<svg width="304" height="224" viewBox="0 0 304 224" fill="none" xmlns="http://www.w3.org/2000/svg">
<path d="M197.311 -99.1141C160.34 -106.894 121.816 -101.614 88.3027 -84.1737C54.789 -66.7337 28.3592 -38.2129 13.5165 -3.47076C-1.32609 31.2714 -3.66319 70.0852 6.90346 106.357C17.4701 142.629 40.2867 174.116 71.4657 195.451C102.645 216.786 140.257 226.651 177.893 223.363C215.53 220.076 250.862 203.84 277.87 177.423C304.878 151.005 321.891 116.04 326.009 78.4857C330.128 40.931 321.097 3.11004 300.456 -28.5329L269.715 -8.47996C285.716 16.0507 292.717 45.3708 289.524 74.4846C286.332 103.598 273.143 130.704 252.205 151.184C231.268 171.664 203.877 184.25 174.7 186.799C145.522 189.347 116.364 181.7 92.1932 165.16C68.0222 148.62 50.334 124.211 42.1423 96.0917C33.9507 67.9722 35.7625 37.8824 47.269 10.9491C58.7756 -15.9842 79.2649 -38.0946 105.246 -51.6147C131.227 -65.1348 161.092 -69.228 189.753 -63.197L197.311 -99.1141Z" fill="#3E8E86" fill-opacity="0.15"/>
</svg>
