<svg width="41" height="41" viewBox="0 0 41 41" fill="none" xmlns="http://www.w3.org/2000/svg">
<path d="M14.5208 5.125H9.39583C8.26314 5.125 7.17683 5.57496 6.3759 6.3759C5.57496 7.17683 5.125 8.26314 5.125 9.39583C5.125 10.5285 5.57496 11.6148 6.3759 12.4158C7.17683 13.2167 8.26314 13.6667 9.39583 13.6667H14.5208C15.6535 13.6667 16.7398 13.2167 17.5408 12.4158C18.3417 11.6148 18.7917 10.5285 18.7917 9.39583C18.7917 8.26314 18.3417 7.17683 17.5408 6.3759C16.7398 5.57496 15.6535 5.125 14.5208 5.125ZM14.5208 11.9583H9.39583C8.71622 11.9583 8.06443 11.6884 7.58387 11.2078C7.10331 10.7272 6.83333 10.0755 6.83333 9.39583C6.83333 8.71622 7.10331 8.06443 7.58387 7.58387C8.06443 7.10331 8.71622 6.83333 9.39583 6.83333H14.5208C15.2005 6.83333 15.8522 7.10331 16.3328 7.58387C16.8134 8.06443 17.0833 8.71622 17.0833 9.39583C17.0833 10.0755 16.8134 10.7272 16.3328 11.2078C15.8522 11.6884 15.2005 11.9583 14.5208 11.9583ZM14.5208 17.0833H9.39583C8.26314 17.0833 7.17683 17.5333 6.3759 18.3342C5.57496 19.1352 5.125 20.2215 5.125 21.3542V31.6042C5.125 32.7369 5.57496 33.8232 6.3759 34.6241C7.17683 35.425 8.26314 35.875 9.39583 35.875H14.5208C15.6535 35.875 16.7398 35.425 17.5408 34.6241C18.3417 33.8232 18.7917 32.7369 18.7917 31.6042V21.3542C18.7917 20.2215 18.3417 19.1352 17.5408 18.3342C16.7398 17.5333 15.6535 17.0833 14.5208 17.0833ZM17.0833 31.6042C17.0833 32.2838 16.8134 32.9356 16.3328 33.4161C15.8522 33.8967 15.2005 34.1667 14.5208 34.1667H9.39583C8.71622 34.1667 8.06443 33.8967 7.58387 33.4161C7.10331 32.9356 6.83333 32.2838 6.83333 31.6042V21.3542C6.83333 20.6746 7.10331 20.0228 7.58387 19.5422C8.06443 19.0616 8.71622 18.7917 9.39583 18.7917H14.5208C15.2005 18.7917 15.8522 19.0616 16.3328 19.5422C16.8134 20.0228 17.0833 20.6746 17.0833 21.3542V31.6042ZM31.6042 27.3333H26.4792C25.3465 27.3333 24.2602 27.7833 23.4592 28.5842C22.6583 29.3852 22.2083 30.4715 22.2083 31.6042C22.2083 32.7369 22.6583 33.8232 23.4592 34.6241C24.2602 35.425 25.3465 35.875 26.4792 35.875H31.6042C32.7369 35.875 33.8232 35.425 34.6241 34.6241C35.425 33.8232 35.875 32.7369 35.875 31.6042C35.875 30.4715 35.425 29.3852 34.6241 28.5842C33.8232 27.7833 32.7369 27.3333 31.6042 27.3333ZM31.6042 34.1667H26.4792C25.7995 34.1667 25.1478 33.8967 24.6672 33.4161C24.1866 32.9356 23.9167 32.2838 23.9167 31.6042C23.9167 30.9245 24.1866 30.2728 24.6672 29.7922C25.1478 29.3116 25.7995 29.0417 26.4792 29.0417H31.6042C32.2838 29.0417 32.9356 29.3116 33.4161 29.7922C33.8967 30.2728 34.1667 30.9245 34.1667 31.6042C34.1667 32.2838 33.8967 32.9356 33.4161 33.4161C32.9356 33.8967 32.2838 34.1667 31.6042 34.1667ZM31.6042 5.125H26.4792C25.3465 5.125 24.2602 5.57496 23.4592 6.3759C22.6583 7.17683 22.2083 8.26314 22.2083 9.39583V19.6458C22.2083 20.7785 22.6583 21.8648 23.4592 22.6658C24.2602 23.4667 25.3465 23.9167 26.4792 23.9167H31.6042C32.7369 23.9167 33.8232 23.4667 34.6241 22.6658C35.425 21.8648 35.875 20.7785 35.875 19.6458V9.39583C35.875 8.26314 35.425 7.17683 34.6241 6.3759C33.8232 5.57496 32.7369 5.125 31.6042 5.125ZM34.1667 19.6458C34.1667 20.3255 33.8967 20.9772 33.4161 21.4578C32.9356 21.9384 32.2838 22.2083 31.6042 22.2083H26.4792C25.7995 22.2083 25.1478 21.9384 24.6672 21.4578C24.1866 20.9772 23.9167 20.3255 23.9167 19.6458V9.39583C23.9167 8.71622 24.1866 8.06443 24.6672 7.58387C25.1478 7.10331 25.7995 6.83333 26.4792 6.83333H31.6042C32.2838 6.83333 32.9356 7.10331 33.4161 7.58387C33.8967 8.06443 34.1667 8.71622 34.1667 9.39583V19.6458Z" fill="black"/>
</svg>
