<svg width="23" height="18" viewBox="0 0 23 18" fill="none" xmlns="http://www.w3.org/2000/svg">
<path d="M22.904 8.55C20.5818 3.27375 16.2134 0 11.5 0C6.78664 0 2.41816 3.27375 0.095974 8.55C0.0326733 8.69194 0 8.84513 0 9C0 9.15487 0.0326733 9.30806 0.095974 9.45C2.41816 14.7262 6.78664 18 11.5 18C16.2134 18 20.5818 14.7262 22.904 9.45C22.9673 9.30806 23 9.15487 23 9C23 8.84513 22.9673 8.69194 22.904 8.55ZM11.5 15.75C7.85577 15.75 4.40697 13.1737 2.41816 9C4.40697 4.82625 7.85577 2.25 11.5 2.25C15.1442 2.25 18.593 4.82625 20.5818 9C18.593 13.1737 15.1442 15.75 11.5 15.75ZM11.5 4.5C10.5905 4.5 9.70147 4.76392 8.94527 5.25839C8.18906 5.75285 7.59968 6.45566 7.25163 7.27792C6.90359 8.10019 6.81253 9.00499 6.98996 9.87791C7.16739 10.7508 7.60534 11.5526 8.24844 12.182C8.89154 12.8113 9.7109 13.2399 10.6029 13.4135C11.4949 13.5872 12.4195 13.4981 13.2597 13.1575C14.1 12.8169 14.8181 12.2401 15.3234 11.5001C15.8287 10.76 16.0984 9.89002 16.0984 9C16.0984 7.80653 15.6139 6.66193 14.7516 5.81802C13.8892 4.97411 12.7196 4.5 11.5 4.5ZM11.5 11.25C11.0453 11.25 10.6007 11.118 10.2226 10.8708C9.84453 10.6236 9.54984 10.2722 9.37582 9.86104C9.2018 9.4499 9.15626 8.9975 9.24498 8.56105C9.33369 8.12459 9.55267 7.72368 9.87422 7.40901C10.1958 7.09434 10.6054 6.88005 11.0514 6.79323C11.4974 6.70642 11.9597 6.75097 12.3799 6.92127C12.8 7.09157 13.1591 7.37996 13.4117 7.74997C13.6644 8.11998 13.7992 8.55499 13.7992 9C13.7992 9.59674 13.557 10.169 13.1258 10.591C12.6946 11.0129 12.1098 11.25 11.5 11.25Z" fill="black"/>
</svg>
