<svg width="36" height="36" viewBox="0 0 36 36" fill="none" xmlns="http://www.w3.org/2000/svg">
<path d="M5.88516 5.0836C5.88516 4.68985 5.88516 4.2961 5.88516 3.90235C5.88516 3.43126 5.87813 2.98829 6.11016 2.55938C6.48282 1.86329 7.17188 1.51876 7.94532 1.51173C8.86641 1.51173 9.79454 1.51173 10.7156 1.51173C14.5898 1.51173 18.4641 1.51173 22.3383 1.51173C25.3547 1.51173 28.3641 1.51173 31.3805 1.51173C31.7391 1.51173 32.0836 1.50469 32.4352 1.63829C33.2297 1.94063 33.6867 2.70001 33.6867 3.5297C33.6938 4.28907 33.6867 5.04141 33.6867 5.80079C33.6867 9.36563 33.6867 12.9305 33.6867 16.5024C33.6867 20.4117 33.6867 24.3211 33.6867 28.2305C33.6867 29.4117 33.6867 30.5859 33.6867 31.7672C33.6867 32.0133 33.6867 32.2594 33.6867 32.5055C33.6797 33.3984 33.1313 34.193 32.2524 34.4391C31.95 34.5234 31.6477 34.5094 31.3383 34.5094C30.8953 34.5094 30.4524 34.5094 30.0024 34.5094C28.4063 34.5094 26.8172 34.5094 25.2211 34.5094C21.1641 34.5094 17.107 34.5094 13.05 34.5094C11.6508 34.5094 10.2516 34.5094 8.84532 34.5094C8.53594 34.5094 8.22657 34.5094 7.91016 34.5094C7.08751 34.5094 6.33516 34.0805 6.01172 33.3C5.85001 32.8992 5.8711 32.4773 5.8711 32.0555C5.8711 31.6828 5.8711 31.3102 5.8711 30.9375C5.8711 30.2555 4.81641 30.2555 4.81641 30.9375C4.81641 31.8586 4.69688 32.8781 5.06251 33.743C5.54063 34.8609 6.64454 35.543 7.84688 35.557C8.6836 35.5711 9.51329 35.557 10.35 35.557C14.2805 35.557 18.2109 35.557 22.1484 35.557C25.2352 35.557 28.3148 35.557 31.4016 35.557C31.8727 35.557 32.3367 35.5359 32.7867 35.3602C33.968 34.9031 34.7133 33.7852 34.7274 32.5266C34.7344 31.8375 34.7274 31.1414 34.7274 30.4524C34.7274 26.8313 34.7274 23.2102 34.7274 19.5891C34.7274 15.5883 34.7274 11.5875 34.7274 7.58673C34.7274 6.41954 34.7274 5.25938 34.7274 4.0922C34.7274 3.88829 34.7274 3.68438 34.7274 3.48751C34.7063 2.17266 33.8766 0.998445 32.6109 0.604695C31.8094 0.35157 30.818 0.471101 29.9883 0.471101C28.3711 0.471101 26.7609 0.471101 25.1438 0.471101C20.9883 0.471101 16.8398 0.471101 12.6844 0.471101C11.3203 0.471101 9.95626 0.471101 8.58516 0.471101C8.33204 0.471101 8.07891 0.46407 7.83282 0.471101C6.56719 0.471101 5.42813 1.26563 4.99219 2.48204C4.71094 3.2836 4.83047 4.24688 4.83047 5.07657C4.83047 5.7586 5.88516 5.7586 5.88516 5.0836Z" fill="black"/>
<path d="M5.88513 27.0774C5.88513 25.0313 5.88513 22.9781 5.88513 20.932C5.88513 17.6695 5.88513 14.407 5.88513 11.1516C5.88513 10.4063 5.88513 9.66095 5.88513 8.91564C5.88513 8.23361 4.83044 8.23361 4.83044 8.91564C4.83044 10.9617 4.83044 13.0149 4.83044 15.0609C4.83044 18.3234 4.83044 21.5859 4.83044 24.8414C4.83044 25.5867 4.83044 26.332 4.83044 27.0774C4.83044 27.7594 5.88513 27.7594 5.88513 27.0774Z" fill="black"/>
<path d="M7.43909 8.39532C6.518 8.39532 5.58987 8.39532 4.66878 8.39532C4.31721 8.39532 3.95862 8.40235 3.60706 8.39532C2.88987 8.38126 2.3344 7.82579 2.32034 7.1086C2.30628 6.4336 2.60862 5.80079 3.32581 5.63907C3.65628 5.56172 4.03596 5.61094 4.37346 5.61094C5.37893 5.61094 6.39143 5.60391 7.3969 5.61094C8.10003 5.61797 8.70471 6.12422 8.72581 6.84844C8.7469 7.65001 8.318 8.36719 7.43909 8.39532C6.76409 8.41641 6.75706 9.4711 7.43909 9.45001C8.49378 9.42188 9.45706 8.72579 9.71018 7.6711C9.93518 6.74297 9.68206 5.70235 8.92268 5.09063C8.38831 4.65469 7.76956 4.55626 7.10159 4.55626C6.44768 4.55626 5.79378 4.55626 5.13284 4.55626C4.62659 4.55626 4.12737 4.54922 3.62112 4.55626C2.68596 4.57032 1.82815 5.09063 1.4555 5.96251C1.07581 6.84141 1.22346 7.93829 1.84925 8.66251C2.34143 9.23204 3.05159 9.44297 3.78284 9.44297C4.99925 9.44297 6.21565 9.44297 7.43206 9.44297C8.11409 9.45001 8.11409 8.39532 7.43909 8.39532ZM7.43909 30.3891C6.518 30.3891 5.58987 30.3891 4.66878 30.3891C4.31721 30.3891 3.95862 30.3961 3.60706 30.3891C2.88987 30.375 2.3344 29.8195 2.32034 29.1024C2.30628 28.4273 2.60862 27.7945 3.32581 27.6328C3.65628 27.5555 4.03596 27.6047 4.37346 27.6047C5.37893 27.6047 6.39143 27.5977 7.3969 27.6047C8.10003 27.6117 8.70471 28.118 8.72581 28.8422C8.7469 29.6508 8.318 30.368 7.43909 30.3891C6.76409 30.4102 6.75706 31.4649 7.43909 31.4438C8.49378 31.4156 9.45706 30.7195 9.71018 29.6649C9.93518 28.7367 9.68206 27.6961 8.92268 27.0844C8.38831 26.6484 7.76956 26.55 7.10159 26.55C6.44768 26.55 5.79378 26.55 5.13284 26.55C4.62659 26.55 4.12737 26.543 3.62112 26.55C2.68596 26.5711 1.82815 27.0844 1.4555 27.9563C1.07581 28.8352 1.22346 29.932 1.84925 30.6563C2.34143 31.2258 3.05159 31.4367 3.78284 31.4367C4.99925 31.4367 6.21565 31.4367 7.43206 31.4367C8.11409 31.4438 8.11409 30.3891 7.43909 30.3891Z" fill="black"/>
<path d="M11.1023 3.61406C11.1023 4.57031 11.1023 5.52656 11.1023 6.48281C11.1023 8.775 11.1023 11.0742 11.1023 13.3664C11.1023 16.1297 11.1023 18.893 11.1023 21.6562C11.1023 24.0539 11.1023 26.4516 11.1023 28.8492C11.1023 30.0094 11.0531 31.1766 11.1023 32.3367C11.1023 32.3508 11.1023 32.3719 11.1023 32.3859C11.1023 33.068 12.157 33.068 12.157 32.3859C12.157 31.4297 12.157 30.4734 12.157 29.5172C12.157 27.225 12.157 24.9258 12.157 22.6336C12.157 19.8703 12.157 17.107 12.157 14.3438C12.157 11.9461 12.157 9.54844 12.157 7.15078C12.157 5.99062 12.2062 4.82344 12.157 3.66328C12.157 3.64922 12.157 3.62812 12.157 3.61406C12.157 2.93203 11.1023 2.93203 11.1023 3.61406Z" fill="black"/>
<path d="M15.3492 6.20157C17.0437 6.20157 18.7312 6.20157 20.4258 6.20157C23.1258 6.20157 25.8258 6.20157 28.5328 6.20157C29.1586 6.20157 29.7844 6.20157 30.4031 6.20157C31.0851 6.20157 31.0851 5.14688 30.4031 5.14688C28.7086 5.14688 27.0211 5.14688 25.3265 5.14688C22.6265 5.14688 19.9265 5.14688 17.2195 5.14688C16.5937 5.14688 15.968 5.14688 15.3492 5.14688C14.6742 5.14688 14.6742 6.20157 15.3492 6.20157ZM15.3492 9.75938C17.0437 9.75938 18.7312 9.75938 20.4258 9.75938C23.1258 9.75938 25.8258 9.75938 28.5328 9.75938C29.1586 9.75938 29.7844 9.75938 30.4031 9.75938C31.0851 9.75938 31.0851 8.70469 30.4031 8.70469C28.7086 8.70469 27.0211 8.70469 25.3265 8.70469C22.6265 8.70469 19.9265 8.70469 17.2195 8.70469C16.5937 8.70469 15.968 8.70469 15.3492 8.70469C14.6742 8.70469 14.6742 9.75938 15.3492 9.75938ZM15.3492 13.3172C17.0437 13.3172 18.7312 13.3172 20.4258 13.3172C23.1258 13.3172 25.8258 13.3172 28.5328 13.3172C29.1586 13.3172 29.7844 13.3172 30.4031 13.3172C31.0851 13.3172 31.0851 12.2625 30.4031 12.2625C28.7086 12.2625 27.0211 12.2625 25.3265 12.2625C22.6265 12.2625 19.9265 12.2625 17.2195 12.2625C16.5937 12.2625 15.968 12.2625 15.3492 12.2625C14.6742 12.2625 14.6742 13.3172 15.3492 13.3172Z" fill="black"/>
<path d="M15.3492 19.2094C17.0437 19.2094 18.7312 19.2094 20.4258 19.2094C23.1258 19.2094 25.8258 19.2094 28.5328 19.2094C29.1586 19.2094 29.7844 19.2094 30.4031 19.2094C31.0851 19.2094 31.0851 18.1547 30.4031 18.1547C28.7086 18.1547 27.0211 18.1547 25.3265 18.1547C22.6265 18.1547 19.9265 18.1547 17.2195 18.1547C16.5937 18.1547 15.968 18.1547 15.3492 18.1547C14.6742 18.1547 14.6742 19.2094 15.3492 19.2094ZM15.3492 22.7672C17.0437 22.7672 18.7312 22.7672 20.4258 22.7672C23.1258 22.7672 25.8258 22.7672 28.5328 22.7672C29.1586 22.7672 29.7844 22.7672 30.4031 22.7672C31.0851 22.7672 31.0851 21.7125 30.4031 21.7125C28.7086 21.7125 27.0211 21.7125 25.3265 21.7125C22.6265 21.7125 19.9265 21.7125 17.2195 21.7125C16.5937 21.7125 15.968 21.7125 15.3492 21.7125C14.6742 21.7125 14.6742 22.7672 15.3492 22.7672ZM15.3492 26.325C17.0437 26.325 18.7312 26.325 20.4258 26.325C23.1258 26.325 25.8258 26.325 28.5328 26.325C29.1586 26.325 29.7844 26.325 30.4031 26.325C31.0851 26.325 31.0851 25.2703 30.4031 25.2703C28.7086 25.2703 27.0211 25.2703 25.3265 25.2703C22.6265 25.2703 19.9265 25.2703 17.2195 25.2703C16.5937 25.2703 15.968 25.2703 15.3492 25.2703C14.6742 25.2703 14.6742 26.325 15.3492 26.325Z" fill="black"/>
</svg>
