<svg width="38" height="38" viewBox="0 0 38 38" fill="none" xmlns="http://www.w3.org/2000/svg">
<path d="M25.6725 3.95834C30.7237 3.95834 34.8334 8.16174 34.8334 13.33V24.6701C34.8334 29.8383 30.7237 34.0417 25.6725 34.0417C25.0899 34.0417 24.617 33.5578 24.617 32.9617C24.617 32.3655 25.0899 31.8817 25.6725 31.8817C29.5598 31.8817 32.7222 28.6474 32.7222 24.6701V15.6196H27.5233C25.8161 15.621 24.4242 17.0438 24.4228 18.7919C24.4242 20.5401 25.8161 21.9628 27.5233 21.9643H29.6836C30.2663 21.9643 30.7392 22.4481 30.7392 23.0443C30.7392 23.6405 30.2663 24.1243 29.6836 24.1243H27.5233C24.6508 24.1229 22.3131 21.731 22.3116 18.7919C22.3131 15.8529 24.6508 13.461 27.5233 13.4596H32.7222V13.33C32.7222 9.35264 29.5598 6.11836 25.6725 6.11836H12.3261C9.1932 6.11836 6.56417 8.23231 5.64795 11.1282H19.5616C20.1442 11.1282 20.6171 11.612 20.6171 12.2082C20.6171 12.8058 20.1442 13.2882 19.5616 13.2882H5.28202L5.2778 13.33V24.6701C5.2778 28.6474 8.43883 31.8817 12.3261 31.8817H19.0408C19.6235 31.8817 20.0964 32.3655 20.0964 32.9617C20.0964 33.5578 19.6235 34.0417 19.0408 34.0417H12.3261C7.27491 34.0417 3.16669 29.8383 3.16669 24.6701V13.33C3.16669 8.16174 7.27491 3.95834 12.3261 3.95834H25.6725ZM28.232 17.6146C28.8147 17.6146 29.2876 18.0984 29.2876 18.6946C29.2876 19.2907 28.8147 19.7746 28.232 19.7746H27.7521C27.1695 19.7746 26.6966 19.2907 26.6966 18.6946C26.6966 18.0984 27.1695 17.6146 27.7521 17.6146H28.232Z" fill="#200E32"/>
</svg>
